<mxfile host="app.diagrams.net" agent="Mozilla/5.0 (Macintosh; Intel Mac OS X 10_15_7) AppleWebKit/605.1.15 (KHTML, like Gecko) Version/18.5 Safari/605.1.15" version="27.2.0">
  <diagram name="Page-1" id="TS4pUNaJphcrqlXcpazm">
    <mxGraphModel dx="1234" dy="771" grid="1" gridSize="10" guides="1" tooltips="1" connect="1" arrows="1" fold="1" page="1" pageScale="1" pageWidth="827" pageHeight="1169" math="0" shadow="0">
      <root>
        <mxCell id="0" />
        <mxCell id="1" parent="0" />
        <mxCell id="RvyA6hhyUbeuCWu5KhrH-2" value="LiDAR" style="rounded=0;whiteSpace=wrap;html=1;fillColor=#008a00;fontColor=#ffffff;strokeColor=#005700;" parent="1" vertex="1">
          <mxGeometry x="40" y="120" width="120" height="40" as="geometry" />
        </mxCell>
        <mxCell id="RvyA6hhyUbeuCWu5KhrH-3" value="" style="endArrow=classic;html=1;rounded=0;exitX=1;exitY=0.5;exitDx=0;exitDy=0;entryX=0;entryY=0.5;entryDx=0;entryDy=0;" parent="1" source="RvyA6hhyUbeuCWu5KhrH-2" target="RvyA6hhyUbeuCWu5KhrH-4" edge="1">
          <mxGeometry width="50" height="50" relative="1" as="geometry">
            <mxPoint x="390" y="420" as="sourcePoint" />
            <mxPoint x="440" y="370" as="targetPoint" />
          </mxGeometry>
        </mxCell>
        <mxCell id="RvyA6hhyUbeuCWu5KhrH-4" value="LIO-SAM" style="rounded=0;whiteSpace=wrap;html=1;fillColor=#d80073;fontColor=#ffffff;strokeColor=#A50040;" parent="1" vertex="1">
          <mxGeometry x="220" y="120" width="120" height="40" as="geometry" />
        </mxCell>
        <mxCell id="RvyA6hhyUbeuCWu5KhrH-5" value="Mission Planner" style="rounded=0;whiteSpace=wrap;html=1;fillColor=#1ba1e2;fontColor=#ffffff;strokeColor=#006EAF;" parent="1" vertex="1">
          <mxGeometry x="400" y="160" width="120" height="40" as="geometry" />
        </mxCell>
        <mxCell id="RvyA6hhyUbeuCWu5KhrH-6" value="" style="endArrow=classic;html=1;rounded=0;entryX=0;entryY=0.5;entryDx=0;entryDy=0;exitX=1;exitY=0.5;exitDx=0;exitDy=0;" parent="1" source="RvyA6hhyUbeuCWu5KhrH-4" target="RvyA6hhyUbeuCWu5KhrH-5" edge="1">
          <mxGeometry width="50" height="50" relative="1" as="geometry">
            <mxPoint x="380" y="180" as="sourcePoint" />
            <mxPoint x="240" y="140" as="targetPoint" />
            <Array as="points">
              <mxPoint x="370" y="140" />
              <mxPoint x="370" y="180" />
            </Array>
          </mxGeometry>
        </mxCell>
        <mxCell id="RvyA6hhyUbeuCWu5KhrH-8" value="Camera" style="rounded=0;whiteSpace=wrap;html=1;fillColor=#008a00;fontColor=#ffffff;strokeColor=#005700;" parent="1" vertex="1">
          <mxGeometry x="40" y="220" width="120" height="40" as="geometry" />
        </mxCell>
        <mxCell id="RvyA6hhyUbeuCWu5KhrH-9" value="" style="endArrow=classic;html=1;rounded=0;exitX=1;exitY=0.5;exitDx=0;exitDy=0;entryX=0;entryY=0.5;entryDx=0;entryDy=0;" parent="1" source="RvyA6hhyUbeuCWu5KhrH-8" target="RvyA6hhyUbeuCWu5KhrH-10" edge="1">
          <mxGeometry width="50" height="50" relative="1" as="geometry">
            <mxPoint x="390" y="520" as="sourcePoint" />
            <mxPoint x="440" y="470" as="targetPoint" />
          </mxGeometry>
        </mxCell>
        <mxCell id="RvyA6hhyUbeuCWu5KhrH-10" value="YOLOv10" style="rounded=0;whiteSpace=wrap;html=1;fillColor=#d80073;fontColor=#ffffff;strokeColor=#A50040;" parent="1" vertex="1">
          <mxGeometry x="220" y="220" width="120" height="40" as="geometry" />
        </mxCell>
        <mxCell id="RvyA6hhyUbeuCWu5KhrH-11" value="" style="endArrow=classic;html=1;rounded=0;entryX=0;entryY=0.5;entryDx=0;entryDy=0;exitX=1;exitY=0.5;exitDx=0;exitDy=0;" parent="1" source="RvyA6hhyUbeuCWu5KhrH-10" target="RvyA6hhyUbeuCWu5KhrH-5" edge="1">
          <mxGeometry width="50" height="50" relative="1" as="geometry">
            <mxPoint x="380" y="280" as="sourcePoint" />
            <mxPoint x="400" y="280" as="targetPoint" />
            <Array as="points">
              <mxPoint x="370" y="240" />
              <mxPoint x="370" y="180" />
            </Array>
          </mxGeometry>
        </mxCell>
        <mxCell id="RvyA6hhyUbeuCWu5KhrH-12" value="&lt;font style=&quot;font-size: 16px;&quot;&gt;Perception&lt;/font&gt;" style="text;html=1;align=center;verticalAlign=middle;whiteSpace=wrap;rounded=0;fontStyle=1" parent="1" vertex="1">
          <mxGeometry x="50" y="80" width="60" height="30" as="geometry" />
        </mxCell>
        <mxCell id="1KH2IxndzdE0YH2LAd0B-2" value="&lt;font style=&quot;font-size: 16px;&quot;&gt;LIO-SAM&lt;/font&gt;" style="text;html=1;align=center;verticalAlign=middle;whiteSpace=wrap;rounded=0;fontStyle=1" vertex="1" parent="1">
          <mxGeometry x="40" y="290" width="70" height="30" as="geometry" />
        </mxCell>
      </root>
    </mxGraphModel>
  </diagram>
</mxfile>
